ffmpeg version 3.4.8-0ubuntu0.2 Copyright (c) 2000-2020 the FFmpeg developers
  built with gcc 7 (Ubuntu 7.5.0-3ubuntu1~18.04)
  configuration: --prefix=/usr --extra-version=0ubuntu0.2 --toolchain=hardened --libdir=/usr/lib/x86_64-linux-gnu --incdir=/usr/include/x86_64-linux-gnu --enable-gpl --disable-stripping --enable-avresample --enable-avisynth --enable-gnutls --enable-ladspa --enable-libass --enable-libbluray --enable-libbs2b --enable-libcaca --enable-libcdio --enable-libflite --enable-libfontconfig --enable-libfreetype --enable-libfribidi --enable-libgme --enable-libgsm --enable-libmp3lame --enable-libmysofa --enable-libopenjpeg --enable-libopenmpt --enable-libopus --enable-libpulse --enable-librubberband --enable-librsvg --enable-libshine --enable-libsnappy --enable-libsoxr --enable-libspeex --enable-libssh --enable-libtheora --enable-libtwolame --enable-libvorbis --enable-libvpx --enable-libwavpack --enable-libwebp --enable-libx265 --enable-libxml2 --enable-libxvid --enable-libzmq --enable-libzvbi --enable-omx --enable-openal --enable-opengl --enable-sdl2 --enable-libdc1394 --enable-libdrm --enable-libiec61883 --enable-chromaprint --enable-frei0r --enable-libopencv --enable-libx264 --enable-shared
  libavutil      55. 78.100 / 55. 78.100
  libavcodec     57.107.100 / 57.107.100
  libavformat    57. 83.100 / 57. 83.100
  libavdevice    57. 10.100 / 57. 10.100
  libavfilter     6.107.100 /  6.107.100
  libavresample   3.  7.  0 /  3.  7.  0
  libswscale      4.  8.100 /  4.  8.100
  libswresample   2.  9.100 /  2.  9.100
  libpostproc    54.  7.100 / 54.  7.100
[rawvideo @ 0x561f3c40aa20] Estimating duration from bitrate, this may be inaccurate
Input #0, rawvideo, from '../../SVC-Encoder-20220109T061506Z-001/SVC-Encoder/Dataset/RollerCoaster/6f_2x2/tile_yuv/f4_t0_480x480.yuv':
  Duration: 00:00:10.00, start: 0.000000, bitrate: 82944 kb/s
    Stream #0:0: Video: rawvideo (I420 / 0x30323449), yuv420p, 480x480, 82944 kb/s, 30 tbr, 30 tbn, 30 tbc
Stream mapping:
  Stream #0:0 -> #0:0 (rawvideo (native) -> h264 (libx264))
Press [q] to stop, [?] for help
[libx264 @ 0x561f3c417c60] using cpu capabilities: MMX2 SSE2Fast LZCNT SSSE3 SSE4.2 AVX
[libx264 @ 0x561f3c417c60] profile High, level 3.0
Output #0, rawvideo, to 'RollerCoaster_f4_t0_480x480_x264_QP_24.h264':
  Metadata:
    encoder         : Lavf57.83.100
    Stream #0:0: Video: h264 (libx264), yuv420p, 480x480, q=-1--1, 30 fps, 30 tbn, 30 tbc
    Metadata:
      encoder         : Lavc57.107.100 libx264
    Side data:
      cpb: bitrate max/min/avg: 0/0/0 buffer size: 0 vbv_delay: -1
frame=  136 fps=0.0 q=30.0 PSNR=Y:nan U:nan V:nan *:nan size=     150kB time=00:00:03.10 bitrate= 396.8kbits/s speed= 6.1x    frame=  237 fps=235 q=30.0 PSNR=Y:nan U:nan V:nan *:nan size=     256kB time=00:00:06.46 bitrate= 324.3kbits/s speed= 6.4x    frame=  300 fps=210 q=30.0 LPSNR=Y:inf U:inf V:inf *:inf size=     409kB time=00:00:09.93 bitrate= 337.4kbits/s speed=6.96x    
video:409kB audio:0kB subtitle:0kB other streams:0kB global headers:0kB muxing overhead: 0.000000%
[libx264 @ 0x561f3c417c60] frame I:2     Avg QP:22.53  size: 18646  PSNR Mean Y:45.33 U:50.48 V:52.26 Avg:46.57 Global:46.46
[libx264 @ 0x561f3c417c60] frame P:76    Avg QP:23.86  size:  3914  PSNR Mean Y:43.41 U:49.90 V:51.68 Avg:44.78 Global:44.74
[libx264 @ 0x561f3c417c60] frame B:222   Avg QP:29.48  size:   379  PSNR Mean Y:42.55 U:49.73 V:51.58 Avg:43.98 Global:43.96
[libx264 @ 0x561f3c417c60] consecutive B-frames:  1.3%  0.0%  0.0% 98.7%
[libx264 @ 0x561f3c417c60] mb I  I16..4: 41.6% 48.4% 10.0%
[libx264 @ 0x561f3c417c60] mb P  I16..4:  1.1%  0.4%  0.0%  P16..4: 21.0% 13.5%  8.3%  0.0%  0.0%    skip:55.6%
[libx264 @ 0x561f3c417c60] mb B  I16..4:  0.0%  0.0%  0.0%  B16..8: 21.3%  3.1%  0.2%  direct: 0.2%  skip:75.1%  L0:36.1% L1:52.0% BI:11.9%
[libx264 @ 0x561f3c417c60] 8x8 transform intra:41.5% inter:63.5%
[libx264 @ 0x561f3c417c60] coded y,uvDC,uvAC intra: 33.4% 34.7% 10.7% inter: 5.9% 2.9% 0.0%
[libx264 @ 0x561f3c417c60] i16 v,h,dc,p: 33% 28% 17% 22%
[libx264 @ 0x561f3c417c60] i8 v,h,dc,ddl,ddr,vr,hd,vl,hu:  4% 13% 32%  4% 11%  3% 22%  7%  4%
[libx264 @ 0x561f3c417c60] i4 v,h,dc,ddl,ddr,vr,hd,vl,hu:  9% 13% 18%  3% 21%  6% 24%  3%  4%
[libx264 @ 0x561f3c417c60] i8c dc,h,v,p: 63% 22% 11%  4%
[libx264 @ 0x561f3c417c60] Weighted P-Frames: Y:1.3% UV:0.0%
[libx264 @ 0x561f3c417c60] ref P L0: 62.4% 17.5% 16.1%  4.0%  0.1%
[libx264 @ 0x561f3c417c60] ref B L0: 84.3% 13.8%  1.9%
[libx264 @ 0x561f3c417c60] ref B L1: 84.1% 15.9%
[libx264 @ 0x561f3c417c60] PSNR Mean Y:42.789 U:49.780 V:51.613 Avg:44.202 Global:44.161 kb/s:335.11
